<?xml version="1.0" encoding="UTF-8"?>
<!DOCTYPE svg PUBLIC "-//W3C//DTD SVG 1.1//EN" "http://www.w3.org/Graphics/SVG/1.1/DTD/svg11.dtd">
<!-- Creator: CorelDRAW 2021 (64-Bit) -->
<svg xmlns="http://www.w3.org/2000/svg" xml:space="preserve" width="1.99999in" height="2in" version="1.1" shape-rendering="geometricPrecision" text-rendering="geometricPrecision" image-rendering="optimizeQuality" fill-rule="evenodd" clip-rule="evenodd"
viewBox="0 0 1999.99 2000"
 xmlns:xlink="http://www.w3.org/1999/xlink"
 xmlns:xodm="http://www.corel.com/coreldraw/odm/2003">
 <defs>
   <clipPath id="id0">
    <path d="M1000 54.31c522.28,0 945.69,423.41 945.69,945.69 0,522.28 -423.41,945.69 -945.69,945.69 -522.28,0 -945.69,-423.41 -945.69,-945.69 0,-522.28 423.41,-945.69 945.69,-945.69z"/>
   </clipPath>
 </defs>
 <g id="Layer_x0020_1">
  <metadata id="CorelCorpID_0Corel-Layer"/>
  <g>
  </g>
  <g clip-path="url(#id0)">
   <g>
    <g id="_2463838475264">
     <g>
      <path fill="#1E212A" d="M117.7 1142.75c172.48,57.63 399.14,75.15 588.39,48.23 -30.93,-48.63 -49.38,-104.57 -53.09,-163.09 -139.12,-156.06 -270.71,-381.67 -344.32,-586.22 -130.02,158.51 -201.43,356.7 -201.43,564.1 0,45.87 3.47,91.67 10.45,136.98z"/>
     </g>
     <g>
      <path fill="#1E212A" d="M1209.21 140.7c-69.1,-16.82 -140.07,-25.29 -211.6,-25.29 -224.56,0 -438.39,83.69 -602.83,235.1 54.33,175.18 161.56,376.3 280.63,530.83 11.36,-29.44 26.79,-57.34 46.04,-82.94 26.66,-92.24 78.6,-198.28 126.52,-278.27 91.51,-152.74 211.83,-285.48 361.23,-379.44z"/>
     </g>
     <g>
      <path fill="#1E212A" d="M1825.3 676.99c-86.67,-217.95 -257.47,-394.76 -474.05,-488.59 -174.05,83.73 -309.59,223.78 -408.33,388.61 -18.04,30.11 -37.07,64.88 -54.81,101.22 34.86,-11.65 71.77,-17.77 109.5,-17.77 38.39,0 76.43,6.32 112.64,18.81 215.16,-42.4 490.03,-41.89 715.05,-2.28z"/>
     </g>
     <g>
      <path fill="#1E212A" d="M1633.59 1628.93c162.38,-165.56 254.38,-388 254.38,-623.17 0,-70.29 -8.18,-140.27 -24.56,-208.55 -182.96,-39.99 -414.01,-49.87 -613.59,-27.34 58.57,62.67 93.1,146.37 93.1,235.89 0,11.58 -0.57,23.15 -1.72,34.66 138.13,153.2 247.94,380.17 292.39,588.5z"/>
     </g>
     <g>
      <path fill="#1E212A" d="M1536.57 1714.52c-26.19,-182.43 -115.91,-394.03 -233.73,-547.19 -34.81,65.67 -90.36,119.12 -158.64,151.17 -15.14,65.78 -47.59,139.63 -77.3,193.94 -76.66,140.07 -186.74,256.61 -315.25,349.27 79.78,22.88 162.47,34.41 245.96,34.41 195.69,0 383.91,-63.44 538.96,-181.61z"/>
     </g>
     <g>
      <path fill="#1E212A" d="M797.48 1287.2c-198.43,42.37 -448.52,33.73 -651.39,-20.51 73.78,240.89 247.92,441.09 478,547.54 141.93,-88.99 265.12,-207.41 345.95,-355.3 16.33,-29.89 34.95,-69.25 49.23,-108.51 -7.2,0.44 -14.43,0.67 -21.66,0.67 -72.19,0 -141.82,-22.35 -200.13,-63.88z"/>
     </g>
    </g>
    <circle fill="#1E212A" cx="1000" cy="1000" r="196.35"/>
   </g>
  </g>
  <path fill="none" d="M1000 54.31c522.28,0 945.69,423.41 945.69,945.69 0,522.28 -423.41,945.69 -945.69,945.69 -522.28,0 -945.69,-423.41 -945.69,-945.69 0,-522.28 423.41,-945.69 945.69,-945.69z"/>
 </g>
</svg>
