<?xml version="1.0" encoding="UTF-8"?>
<!DOCTYPE svg PUBLIC "-//W3C//DTD SVG 1.1//EN" "http://www.w3.org/Graphics/SVG/1.1/DTD/svg11.dtd">
<!-- Creator: CorelDRAW 2021 (64-Bit) -->
<svg xmlns="http://www.w3.org/2000/svg" xml:space="preserve" width="1.99999in" height="0.999992in" version="1.1" shape-rendering="geometricPrecision" text-rendering="geometricPrecision" image-rendering="optimizeQuality" fill-rule="evenodd" clip-rule="evenodd"
viewBox="0 0 1999.99 999.99"
 xmlns:xlink="http://www.w3.org/1999/xlink"
 xmlns:xodm="http://www.corel.com/coreldraw/odm/2003">
 <defs>
    <clipPath id="id0">
     <path d="M100.27 811.01c30.09,-30.82 81.66,-69.88 180.23,-64.56 0.25,-0.18 6.87,-1.98 7.12,-2.16l-174.1 -150.89c-2.29,-1.99 -5.33,-2.45 -8.13,-1.28 -2.8,1.18 -4.57,3.67 -4.78,6.69l-13.75 206.22c-0.22,3.33 1.56,6.3 4.61,7.66 3.05,1.36 6.46,0.71 8.79,-1.68z"/>
    </clipPath>
 </defs>
 <g id="Layer_x0020_1">
  <metadata id="CorelCorpID_0Corel-Layer"/>
  <g id="_1971574032704">
   <path fill="#42BC81" d="M100.27 811.01c30.09,-30.82 81.66,-69.88 180.23,-64.56 0.25,-0.18 6.87,-1.98 7.12,-2.16l-174.1 -150.89c-2.29,-1.99 -5.33,-2.45 -8.13,-1.28 -2.8,1.18 -4.57,3.67 -4.78,6.69l-13.75 206.22c-0.22,3.33 1.56,6.3 4.61,7.66 3.05,1.36 6.46,0.71 8.79,-1.68z"/>
   <g clip-path="url(#id0)">
    <g>
     <ellipse fill="#07A65B" transform="matrix(0.318455 -0.153674 0.153674 0.318455 165.95 746.596)" rx="302.32" ry="31.82"/>
     <g>
      <path fill="#07A65B" d="M149.32 706.89c44.94,-21.7 83.22,-35.44 85.5,-30.72 2.28,4.74 -32.3,26.15 -77.24,47.85 -44.94,21.69 -83.23,35.43 -85.52,30.7 -2.28,-4.73 32.3,-26.15 77.26,-47.83z"/>
      <path fill="#07A65B" d="M137.57 677.31c36.72,-17.73 67.99,-28.96 69.87,-25.09 1.86,3.87 -26.4,21.37 -63.12,39.08 -36.71,17.72 -67.99,28.96 -69.85,25.09 -1.86,-3.87 26.38,-21.37 63.11,-39.08z"/>
      <path fill="#07A65B" d="M125.81 647.72c28.49,-13.76 52.77,-22.47 54.22,-19.48 1.44,3.01 -20.48,16.58 -48.97,30.32 -28.49,13.76 -52.76,22.47 -54.22,19.48 -1.44,-3 20.48,-16.58 48.97,-30.32z"/>
     </g>
     <ellipse fill="#07A65B" transform="matrix(0.121369 -0.058568 0.058568 0.121369 115.942 622)" rx="302.32" ry="31.82"/>
    </g>
   </g>
   <path fill="none" d="M100.27 811.01c30.09,-30.82 81.66,-69.88 180.23,-64.56 0.25,-0.18 6.87,-1.98 7.12,-2.16l-174.1 -150.89c-2.29,-1.99 -5.33,-2.45 -8.13,-1.28 -2.8,1.18 -4.57,3.67 -4.78,6.69l-13.75 206.22c-0.22,3.33 1.56,6.3 4.61,7.66 3.05,1.36 6.46,0.71 8.79,-1.68z"/>
   <path fill="#FF6B01" d="M121.15 619.01l-10.29 -5.47c-2.43,-1.29 -5.34,-0.76 -7.16,1.3l-7.71 8.74c-1.52,1.72 -3.74,2.39 -5.96,1.77 -2.22,-0.61 -3.79,-2.32 -4.21,-4.58l-2.14 -11.46c-0.5,-2.7 -2.73,-4.65 -5.48,-4.78l-11.64 -0.58c-2.3,-0.11 -4.2,-1.44 -5.1,-3.56 -0.91,-2.11 -0.55,-4.41 0.96,-6.15l7.62 -8.82c1.8,-2.08 1.93,-5.03 0.32,-7.26l-6.8 -9.46c-1.34,-1.87 -1.49,-4.18 -0.4,-6.2 1.09,-2.02 3.11,-3.18 5.4,-3.09l11.65 0.46c2.75,0.11 5.14,-1.63 5.88,-4.28l3.16 -11.22c0.63,-2.21 2.34,-3.78 4.6,-4.19 2.26,-0.41 4.42,0.45 5.78,2.3l6.9 9.39c1.63,2.22 4.48,3 7.01,1.94l10.74 -4.53c2.12,-0.89 4.41,-0.52 6.14,0.99 1.73,1.51 2.4,3.73 1.8,5.95l-3.04 11.25c-0.72,2.65 0.44,5.37 2.86,6.69l10.23 5.57c2.02,1.1 3.16,3.12 3.06,5.42 -0.11,2.3 -1.42,4.21 -3.53,5.13l-10.69 4.63c-2.52,1.09 -3.92,3.7 -3.44,6.41l2.02 11.48c0.4,2.26 -0.47,4.41 -2.33,5.77 -1.86,1.35 -4.17,1.51 -6.2,0.43z"/>
   <path fill="#FCCA33" d="M123.08 615.37c0.64,0.33 1.26,0.29 1.84,-0.13 0.58,-0.42 0.82,-1 0.69,-1.71l-2.02 -11.48c-0.81,-4.58 1.6,-9.06 5.87,-10.91l10.69 -4.63c0.66,-0.29 1.02,-0.8 1.05,-1.52 0.03,-0.71 -0.28,-1.26 -0.91,-1.61l-10.24 -5.57c-4.09,-2.23 -6.08,-6.89 -4.87,-11.39l3.04 -11.25c0.19,-0.69 0,-1.3 -0.54,-1.77 -0.54,-0.47 -1.16,-0.57 -1.82,-0.3l-10.74 4.53c-4.3,1.81 -9.18,0.46 -11.94,-3.3l-6.9 -9.39c-0.43,-0.58 -1.01,-0.81 -1.72,-0.69 -0.71,0.13 -1.17,0.55 -1.37,1.24l-3.16 11.22c-1.26,4.48 -5.37,7.46 -10.02,7.28l-11.65 -0.46c-0.72,-0.03 -1.26,0.28 -1.6,0.92 -0.34,0.63 -0.3,1.26 0.12,1.84l6.8 9.46c2.71,3.78 2.48,8.85 -0.56,12.37l-7.62 8.81c-0.47,0.54 -0.57,1.17 -0.28,1.83 0.28,0.66 0.8,1.02 1.52,1.06l11.64 0.58c4.65,0.23 8.47,3.57 9.33,8.15l2.14 11.45c0.13,0.71 0.56,1.17 1.25,1.36 0.69,0.19 1.29,0.01 1.77,-0.53l7.71 -8.74c3.08,-3.48 8.08,-4.39 12.19,-2.21l10.29 5.47z"/>
   <path fill="#20062F" stroke="black" stroke-width="6.94" stroke-linecap="round" stroke-linejoin="round" stroke-miterlimit="2.61313" d="M281.04 738.93c-101.91,-11.08 -164.2,37.99 -190.27,65.08 -1.22,1.27 -1.96,2.7 -2.3,4.48 -4.43,22.97 179.73,-45.4 195.07,-53.27 3.3,-1.69 5.1,-5.39 4.51,-9.24 -0.59,-3.84 -3.39,-6.67 -7.01,-7.06z"/>
  </g>
  <g id="_1971574033856">
   <g>
    <path fill="#FF6B01" d="M1899.6 314.1l-9.65 -5.13c-2.28,-1.21 -5,-0.71 -6.71,1.22l-7.23 8.19c-1.43,1.62 -3.51,2.24 -5.59,1.67 -2.08,-0.57 -3.55,-2.18 -3.95,-4.3l-2.01 -10.75c-0.47,-2.54 -2.56,-4.36 -5.14,-4.49l-10.92 -0.54c-2.15,-0.11 -3.94,-1.35 -4.79,-3.33 -0.85,-1.98 -0.51,-4.13 0.9,-5.77l7.15 -8.27c1.69,-1.95 1.81,-4.72 0.31,-6.81l-6.38 -8.88c-1.26,-1.75 -1.4,-3.92 -0.38,-5.82 1.02,-1.9 2.91,-2.98 5.07,-2.89l10.92 0.43c2.58,0.1 4.82,-1.53 5.52,-4.01l2.96 -10.52c0.59,-2.07 2.2,-3.54 4.32,-3.93 2.12,-0.39 4.15,0.42 5.42,2.16l6.47 8.81c1.53,2.08 4.2,2.81 6.57,1.81l10.07 -4.24c1.99,-0.84 4.13,-0.49 5.76,0.93 1.62,1.42 2.26,3.5 1.69,5.58l-2.85 10.55c-0.67,2.49 0.42,5.04 2.68,6.27l9.6 5.23c1.89,1.03 2.96,2.93 2.87,5.08 -0.1,2.15 -1.33,3.95 -3.31,4.8l-10.03 4.35c-2.37,1.02 -3.68,3.46 -3.23,6.01l1.9 10.76c0.37,2.12 -0.44,4.14 -2.19,5.41 -1.74,1.27 -3.91,1.42 -5.82,0.41z"/>
    <path fill="#FCCA33" d="M1901.42 310.68c0.6,0.32 1.19,0.28 1.73,-0.12 0.55,-0.39 0.77,-0.94 0.65,-1.6l-1.9 -10.77c-0.76,-4.3 1.5,-8.49 5.51,-10.23l10.03 -4.35c0.62,-0.27 0.95,-0.75 0.98,-1.43 0.03,-0.67 -0.26,-1.19 -0.85,-1.51l-9.6 -5.23c-3.83,-2.09 -5.7,-6.46 -4.56,-10.69l2.85 -10.55c0.17,-0.65 0,-1.21 -0.5,-1.66 -0.51,-0.44 -1.09,-0.54 -1.71,-0.28l-10.07 4.24c-4.03,1.7 -8.61,0.43 -11.2,-3.09l-6.47 -8.81c-0.4,-0.54 -0.94,-0.76 -1.61,-0.64 -0.67,0.12 -1.1,0.52 -1.28,1.17l-2.96 10.52c-1.18,4.2 -5.04,7 -9.4,6.83l-10.92 -0.43c-0.67,-0.03 -1.19,0.27 -1.5,0.86 -0.32,0.59 -0.28,1.18 0.11,1.73l6.38 8.87c2.55,3.54 2.33,8.31 -0.52,11.61l-7.15 8.27c-0.44,0.51 -0.53,1.09 -0.27,1.71 0.27,0.62 0.75,0.96 1.43,0.99l10.91 0.55c4.37,0.22 7.95,3.35 8.75,7.65l2.01 10.74c0.13,0.67 0.52,1.1 1.17,1.28 0.65,0.18 1.21,0.01 1.66,-0.49l7.23 -8.2c2.89,-3.27 7.58,-4.12 11.43,-2.07l9.65 5.13z"/>
   </g>
   <polygon fill="#1E212A" points="1717.72,353.28 1745.64,279.14 1762.57,286.46 1739.69,359.69 "/>
   <polygon fill="#1E212A" points="1742.44,372.05 1806.96,329.94 1819.32,345.96 1753.88,388.52 "/>
   <g>
    <path fill="#FF6B01" d="M1785.2 248.61l-5.47 -2.91c-1.29,-0.69 -2.84,-0.41 -3.81,0.69l-4.1 4.65c-0.81,0.92 -1.99,1.27 -3.17,0.94 -1.18,-0.33 -2.02,-1.24 -2.24,-2.44l-1.14 -6.09c-0.27,-1.44 -1.45,-2.47 -2.91,-2.54l-6.19 -0.31c-1.22,-0.06 -2.23,-0.77 -2.71,-1.89 -0.48,-1.13 -0.29,-2.35 0.51,-3.27l4.06 -4.69c0.96,-1.11 1.03,-2.68 0.17,-3.86l-3.62 -5.04c-0.71,-0.99 -0.79,-2.22 -0.21,-3.3 0.58,-1.08 1.65,-1.69 2.87,-1.64l6.19 0.24c1.46,0.06 2.73,-0.87 3.13,-2.27l1.68 -5.97c0.33,-1.18 1.25,-2.01 2.45,-2.22 1.2,-0.22 2.35,0.24 3.07,1.22l3.67 5c0.87,1.18 2.38,1.59 3.73,1.03l5.71 -2.41c1.13,-0.48 2.35,-0.28 3.27,0.52 0.92,0.81 1.28,1.99 0.96,3.17l-1.62 5.98c-0.38,1.41 0.24,2.85 1.52,3.56l5.44 2.96c1.07,0.59 1.68,1.66 1.63,2.88 -0.06,1.22 -0.76,2.24 -1.88,2.72l-5.69 2.47c-1.34,0.58 -2.09,1.96 -1.83,3.41l1.07 6.1c0.21,1.2 -0.25,2.35 -1.24,3.07 -0.99,0.72 -2.22,0.8 -3.3,0.23z"/>
    <path fill="#FCCA33" d="M1786.24 246.67c0.34,0.18 0.67,0.16 0.98,-0.07 0.31,-0.22 0.43,-0.53 0.37,-0.91l-1.07 -6.1c-0.43,-2.44 0.85,-4.82 3.12,-5.8l5.69 -2.46c0.35,-0.15 0.54,-0.43 0.56,-0.81 0.02,-0.38 -0.15,-0.67 -0.48,-0.85l-5.44 -2.96c-2.18,-1.19 -3.24,-3.67 -2.59,-6.06l1.62 -5.98c0.1,-0.37 0,-0.69 -0.28,-0.94 -0.29,-0.25 -0.62,-0.3 -0.97,-0.15l-5.71 2.41c-2.28,0.96 -4.89,0.24 -6.35,-1.75l-3.67 -5c-0.23,-0.31 -0.54,-0.43 -0.91,-0.37 -0.38,0.07 -0.62,0.3 -0.73,0.66l-1.68 5.97c-0.67,2.38 -2.86,3.97 -5.33,3.87l-6.19 -0.24c-0.39,-0.02 -0.67,0.15 -0.85,0.49 -0.18,0.33 -0.16,0.67 0.06,0.98l3.62 5.03c1.44,2.01 1.32,4.71 -0.3,6.58l-4.06 4.69c-0.25,0.29 -0.3,0.62 -0.15,0.97 0.15,0.35 0.42,0.54 0.8,0.56l6.19 0.31c2.47,0.12 4.5,1.9 4.96,4.33l1.14 6.09c0.07,0.37 0.3,0.62 0.67,0.72 0.37,0.1 0.69,0.01 0.94,-0.28l4.1 -4.65c1.64,-1.85 4.3,-2.34 6.48,-1.18l5.48 2.91z"/>
   </g>
  </g>
 </g>
</svg>
