<?xml version="1.0" encoding="UTF-8"?>
<!DOCTYPE svg PUBLIC "-//W3C//DTD SVG 1.1//EN" "http://www.w3.org/Graphics/SVG/1.1/DTD/svg11.dtd">
<!-- Creator: CorelDRAW 2021 (64-Bit) -->
<svg xmlns="http://www.w3.org/2000/svg" xml:space="preserve" width="1.99999in" height="0.999992in" version="1.1" shape-rendering="geometricPrecision" text-rendering="geometricPrecision" image-rendering="optimizeQuality" fill-rule="evenodd" clip-rule="evenodd"
viewBox="0 0 1999.99 999.99"
 xmlns:xlink="http://www.w3.org/1999/xlink"
 xmlns:xodm="http://www.corel.com/coreldraw/odm/2003">
 <defs>
     <clipPath id="id0">
      <path d="M109.79 791.41c24.56,-25.16 66.66,-57.04 147.13,-52.7 0.2,-0.15 5.61,-1.62 5.81,-1.76l-142.13 -123.18c-1.87,-1.62 -4.35,-2 -6.63,-1.04 -2.28,0.96 -3.74,2.99 -3.9,5.46l-11.22 168.34c-0.18,2.72 1.28,5.15 3.77,6.26 2.49,1.11 5.27,0.58 7.17,-1.37z"/>
     </clipPath>
 </defs>
 <g id="Layer_x0020_1">
  <metadata id="CorelCorpID_0Corel-Layer"/>
  <g id="_1971622233248">
   <g>
    <path fill="#3D96FB" d="M109.79 791.41c24.56,-25.16 66.66,-57.04 147.13,-52.7 0.2,-0.15 5.61,-1.62 5.81,-1.76l-142.13 -123.18c-1.87,-1.62 -4.35,-2 -6.63,-1.04 -2.28,0.96 -3.74,2.99 -3.9,5.46l-11.22 168.34c-0.18,2.72 1.28,5.15 3.77,6.26 2.49,1.11 5.27,0.58 7.17,-1.37z"/>
    <g clip-path="url(#id0)">
     <g>
      <ellipse fill="#0072FC" transform="matrix(0.259969 -0.125451 0.125451 0.259969 163.406 738.832)" rx="302.32" ry="31.82"/>
      <g>
       <path fill="#0072FC" d="M149.83 706.41c36.69,-17.7 67.94,-28.93 69.81,-25.06 1.86,3.86 -26.37,21.34 -63.06,39.05 -36.69,17.7 -67.94,28.93 -69.81,25.06 -1.87,-3.86 26.37,-21.35 63.06,-39.05z"/>
       <path fill="#0072FC" d="M140.24 682.26c29.98,-14.46 55.51,-23.63 57.03,-20.48 1.52,3.16 -21.54,17.44 -51.52,31.91 -29.98,14.46 -55.51,23.63 -57.03,20.48 -1.52,-3.16 21.54,-17.44 51.52,-31.9z"/>
       <path fill="#0072FC" d="M130.65 658.11c23.26,-11.22 43.07,-18.34 44.25,-15.89 1.18,2.45 -16.72,13.53 -39.97,24.76 -23.26,11.22 -43.07,18.34 -44.25,15.89 -1.19,-2.45 16.71,-13.53 39.97,-24.76z"/>
      </g>
      <ellipse fill="#0072FC" transform="matrix(0.0990786 -0.0478116 0.0478116 0.0990786 122.583 637.119)" rx="302.32" ry="31.82"/>
     </g>
    </g>
    <path fill="none" d="M109.79 791.41c24.56,-25.16 66.66,-57.04 147.13,-52.7 0.2,-0.15 5.61,-1.62 5.81,-1.76l-142.13 -123.18c-1.87,-1.62 -4.35,-2 -6.63,-1.04 -2.28,0.96 -3.74,2.99 -3.9,5.46l-11.22 168.34c-0.18,2.72 1.28,5.15 3.77,6.26 2.49,1.11 5.27,0.58 7.17,-1.37z"/>
    <path fill="#FF6B01" d="M126.83 634.68l-8.4 -4.46c-1.98,-1.06 -4.36,-0.63 -5.84,1.06l-6.3 7.13c-1.24,1.41 -3.06,1.95 -4.87,1.45 -1.81,-0.5 -3.09,-1.89 -3.44,-3.74l-1.75 -9.35c-0.41,-2.2 -2.23,-3.8 -4.47,-3.91l-9.5 -0.48c-1.87,-0.09 -3.43,-1.18 -4.17,-2.9 -0.74,-1.72 -0.44,-3.6 0.78,-5.02l6.22 -7.2c1.47,-1.7 1.57,-4.11 0.27,-5.93l-5.56 -7.72c-1.09,-1.52 -1.22,-3.41 -0.33,-5.07 0.89,-1.65 2.54,-2.59 4.41,-2.52l9.51 0.38c2.24,0.09 4.19,-1.33 4.8,-3.49l2.58 -9.16c0.51,-1.81 1.91,-3.08 3.76,-3.42 1.85,-0.33 3.61,0.37 4.72,1.88l5.63 7.67c1.33,1.81 3.65,2.45 5.72,1.58l8.77 -3.69c1.73,-0.73 3.6,-0.43 5.01,0.81 1.41,1.24 1.96,3.05 1.47,4.86l-2.48 9.19c-0.59,2.17 0.36,4.39 2.33,5.46l8.35 4.55c1.65,0.9 2.58,2.55 2.5,4.43 -0.09,1.87 -1.16,3.43 -2.88,4.18l-8.73 3.78c-2.06,0.89 -3.2,3.02 -2.81,5.23l1.65 9.37c0.32,1.85 -0.39,3.6 -1.91,4.71 -1.52,1.1 -3.41,1.23 -5.06,0.35z"/>
    <path fill="#FCCA33" d="M128.41 631.7c0.52,0.28 1.03,0.24 1.5,-0.11 0.48,-0.34 0.67,-0.82 0.57,-1.4l-1.65 -9.37c-0.66,-3.74 1.31,-7.39 4.79,-8.91l8.73 -3.78c0.54,-0.24 0.83,-0.65 0.86,-1.24 0.02,-0.58 -0.23,-1.03 -0.74,-1.31l-8.35 -4.55c-3.34,-1.82 -4.96,-5.63 -3.97,-9.3l2.48 -9.19c0.15,-0.57 0,-1.06 -0.44,-1.44 -0.44,-0.39 -0.95,-0.47 -1.49,-0.24l-8.77 3.7c-3.5,1.48 -7.49,0.37 -9.74,-2.69l-5.63 -7.67c-0.35,-0.47 -0.82,-0.66 -1.4,-0.56 -0.58,0.11 -0.95,0.45 -1.11,1.02l-2.58 9.16c-1.03,3.65 -4.39,6.09 -8.18,5.94l-9.51 -0.38c-0.59,-0.02 -1.03,0.23 -1.31,0.75 -0.28,0.52 -0.25,1.03 0.09,1.5l5.55 7.72c2.22,3.08 2.03,7.23 -0.45,10.1l-6.22 7.2c-0.39,0.44 -0.46,0.95 -0.23,1.49 0.23,0.54 0.65,0.83 1.24,0.86l9.5 0.48c3.8,0.19 6.92,2.91 7.61,6.65l1.75 9.35c0.11,0.58 0.45,0.96 1.02,1.11 0.57,0.16 1.06,0.01 1.44,-0.43l6.3 -7.13c2.51,-2.85 6.59,-3.59 9.94,-1.81l8.4 4.46z"/>
    <path fill="#20062F" stroke="black" stroke-width="6.94" stroke-linecap="round" stroke-linejoin="round" stroke-miterlimit="2.61313" d="M257.36 732.58c-83.19,-9.05 -134.05,31.01 -155.32,53.13 -1,1.04 -1.6,2.21 -1.88,3.67 -3.62,18.75 146.72,-37.06 159.24,-43.49 2.69,-1.38 4.17,-4.4 3.69,-7.54 -0.48,-3.14 -2.77,-5.44 -5.72,-5.76z"/>
   </g>
   <g>
    <path fill="#FF6B01" d="M1899.6 314.1l-9.65 -5.13c-2.28,-1.21 -5,-0.71 -6.71,1.22l-7.23 8.19c-1.43,1.62 -3.51,2.24 -5.59,1.67 -2.08,-0.57 -3.55,-2.18 -3.95,-4.3l-2.01 -10.75c-0.47,-2.54 -2.56,-4.36 -5.14,-4.49l-10.92 -0.54c-2.15,-0.11 -3.94,-1.35 -4.79,-3.33 -0.85,-1.98 -0.51,-4.13 0.9,-5.77l7.15 -8.27c1.69,-1.95 1.81,-4.72 0.31,-6.81l-6.38 -8.88c-1.26,-1.75 -1.4,-3.92 -0.38,-5.82 1.02,-1.9 2.91,-2.98 5.07,-2.89l10.92 0.43c2.58,0.1 4.82,-1.53 5.52,-4.01l2.96 -10.52c0.59,-2.07 2.2,-3.54 4.32,-3.93 2.12,-0.39 4.15,0.42 5.42,2.16l6.47 8.81c1.53,2.08 4.2,2.81 6.57,1.81l10.07 -4.24c1.99,-0.84 4.13,-0.49 5.76,0.93 1.62,1.42 2.26,3.5 1.69,5.58l-2.85 10.55c-0.67,2.49 0.42,5.04 2.68,6.27l9.6 5.23c1.89,1.03 2.96,2.93 2.87,5.08 -0.1,2.15 -1.33,3.95 -3.31,4.8l-10.03 4.35c-2.37,1.02 -3.68,3.46 -3.23,6.01l1.9 10.76c0.37,2.12 -0.44,4.14 -2.19,5.41 -1.74,1.27 -3.91,1.42 -5.82,0.41z"/>
    <path fill="#FCCA33" d="M1901.42 310.68c0.6,0.32 1.19,0.28 1.73,-0.12 0.55,-0.39 0.77,-0.94 0.65,-1.6l-1.9 -10.77c-0.76,-4.3 1.5,-8.49 5.51,-10.23l10.03 -4.35c0.62,-0.27 0.95,-0.75 0.98,-1.43 0.03,-0.67 -0.26,-1.19 -0.85,-1.51l-9.6 -5.23c-3.83,-2.09 -5.7,-6.46 -4.56,-10.69l2.85 -10.55c0.17,-0.65 0,-1.21 -0.5,-1.66 -0.51,-0.44 -1.09,-0.54 -1.71,-0.28l-10.07 4.24c-4.03,1.7 -8.61,0.43 -11.2,-3.09l-6.47 -8.81c-0.4,-0.54 -0.94,-0.76 -1.61,-0.64 -0.67,0.12 -1.1,0.52 -1.28,1.17l-2.96 10.52c-1.18,4.2 -5.04,7 -9.4,6.83l-10.92 -0.43c-0.67,-0.03 -1.19,0.27 -1.5,0.86 -0.32,0.59 -0.28,1.18 0.11,1.73l6.38 8.87c2.55,3.54 2.33,8.31 -0.52,11.61l-7.15 8.27c-0.44,0.51 -0.53,1.09 -0.27,1.71 0.27,0.62 0.75,0.96 1.43,0.99l10.91 0.55c4.37,0.22 7.95,3.35 8.75,7.65l2.01 10.74c0.13,0.67 0.52,1.1 1.17,1.28 0.65,0.18 1.21,0.01 1.66,-0.49l7.23 -8.2c2.89,-3.27 7.58,-4.12 11.43,-2.07l9.65 5.13z"/>
   </g>
   <polygon fill="#1E212A" points="1717.72,353.28 1745.64,279.14 1762.57,286.46 1739.69,359.69 "/>
   <polygon fill="#1E212A" points="1742.44,372.05 1806.96,329.94 1819.32,345.96 1753.88,388.52 "/>
   <g>
    <path fill="#FF6B01" d="M1785.2 248.61l-5.47 -2.91c-1.29,-0.69 -2.84,-0.41 -3.81,0.69l-4.1 4.65c-0.81,0.92 -1.99,1.27 -3.17,0.94 -1.18,-0.33 -2.02,-1.24 -2.24,-2.44l-1.14 -6.09c-0.27,-1.44 -1.45,-2.47 -2.91,-2.54l-6.19 -0.31c-1.22,-0.06 -2.23,-0.77 -2.71,-1.89 -0.48,-1.13 -0.29,-2.35 0.51,-3.27l4.06 -4.69c0.96,-1.11 1.03,-2.68 0.17,-3.86l-3.62 -5.04c-0.71,-0.99 -0.79,-2.22 -0.21,-3.3 0.58,-1.08 1.65,-1.69 2.87,-1.64l6.19 0.24c1.46,0.06 2.73,-0.87 3.13,-2.27l1.68 -5.97c0.33,-1.18 1.25,-2.01 2.45,-2.22 1.2,-0.22 2.35,0.24 3.07,1.22l3.67 5c0.87,1.18 2.38,1.59 3.73,1.03l5.71 -2.41c1.13,-0.48 2.35,-0.28 3.27,0.52 0.92,0.81 1.28,1.99 0.96,3.17l-1.62 5.98c-0.38,1.41 0.24,2.85 1.52,3.56l5.44 2.96c1.07,0.59 1.68,1.66 1.63,2.88 -0.06,1.22 -0.76,2.24 -1.88,2.72l-5.69 2.47c-1.34,0.58 -2.09,1.96 -1.83,3.41l1.07 6.1c0.21,1.2 -0.25,2.35 -1.24,3.07 -0.99,0.72 -2.22,0.8 -3.3,0.23z"/>
    <path fill="#FCCA33" d="M1786.24 246.67c0.34,0.18 0.67,0.16 0.98,-0.07 0.31,-0.22 0.43,-0.53 0.37,-0.91l-1.07 -6.1c-0.43,-2.44 0.85,-4.82 3.12,-5.8l5.69 -2.46c0.35,-0.15 0.54,-0.43 0.56,-0.81 0.02,-0.38 -0.15,-0.67 -0.48,-0.85l-5.44 -2.96c-2.18,-1.19 -3.24,-3.67 -2.59,-6.06l1.62 -5.98c0.1,-0.37 0,-0.69 -0.28,-0.94 -0.29,-0.25 -0.62,-0.3 -0.97,-0.15l-5.71 2.41c-2.28,0.96 -4.89,0.24 -6.35,-1.75l-3.67 -5c-0.23,-0.31 -0.54,-0.43 -0.91,-0.37 -0.38,0.07 -0.62,0.3 -0.73,0.66l-1.68 5.97c-0.67,2.38 -2.86,3.97 -5.33,3.87l-6.19 -0.24c-0.39,-0.02 -0.67,0.15 -0.85,0.49 -0.18,0.33 -0.16,0.67 0.06,0.98l3.62 5.03c1.44,2.01 1.32,4.71 -0.3,6.58l-4.06 4.69c-0.25,0.29 -0.3,0.62 -0.15,0.97 0.15,0.35 0.42,0.54 0.8,0.56l6.19 0.31c2.47,0.12 4.5,1.9 4.96,4.33l1.14 6.09c0.07,0.37 0.3,0.62 0.67,0.72 0.37,0.1 0.69,0.01 0.94,-0.28l4.1 -4.65c1.64,-1.85 4.3,-2.34 6.48,-1.18l5.48 2.91z"/>
   </g>
  </g>
 </g>
</svg>
