<?xml version="1.0" encoding="UTF-8"?>
<!DOCTYPE svg PUBLIC "-//W3C//DTD SVG 1.1//EN" "http://www.w3.org/Graphics/SVG/1.1/DTD/svg11.dtd">
<!-- Creator: CorelDRAW 2021 (64-Bit) -->
<svg xmlns="http://www.w3.org/2000/svg" xml:space="preserve" width="1.99999in" height="2in" version="1.1" shape-rendering="geometricPrecision" text-rendering="geometricPrecision" image-rendering="optimizeQuality" fill-rule="evenodd" clip-rule="evenodd"
viewBox="0 0 1999.99 2000"
 xmlns:xlink="http://www.w3.org/1999/xlink"
 xmlns:xodm="http://www.corel.com/coreldraw/odm/2003">
 <g id="Layer_x0020_1">
  <metadata id="CorelCorpID_0Corel-Layer"/>
  <g id="_1973372266336">
   <path fill="white" d="M728.57 336.84c19.13,-8.19 40.2,-12.72 62.31,-12.72 33.56,0 65.94,10.52 92.93,30.05 36.24,-3.17 68.22,-25.28 83.96,-58.17l0 -51.04 134.6 0 0 27.81c0,56.91 46.13,103.04 103.04,103.04 56.91,0 103.04,-46.12 103.04,-103.04l0 -27.81 134.59 0 0 50.55c15.69,33.08 47.76,55.33 84.13,58.52 26.99,-19.54 59.36,-30.05 92.93,-30.05 87.61,0 158.63,71.04 158.63,158.63 0,87.59 -71.04,158.63 -158.63,158.63 -20.36,0 -40.33,-3.86 -58.96,-11.33 8.77,19.69 13.65,41.51 13.65,64.47 0,33.56 -10.52,65.93 -30.05,92.92 3.18,36.37 25.44,68.44 58.52,84.13l50.55 0 0 93.83c22.27,4.28 43.27,13.69 61.44,27.69 31.76,-1.46 61.56,-16 82.3,-40.24l48.93 -57.2 0 425.89 -48.85 -56.63c-20.72,-24.03 -50.37,-38.41 -81.94,-39.88 -18.26,14.17 -39.43,23.7 -61.87,28.01l0 93.83 -51.04 0c-32.9,15.75 -55.01,47.72 -58.18,83.96 19.54,26.99 30.05,59.36 30.05,92.93 0,87.61 -71.04,158.63 -158.63,158.63 -87.61,0 -158.63,-71.04 -158.63,-158.63 0,-21.84 4.44,-43.23 13.01,-63 -18.22,7.3 -38.09,11.3 -58.91,11.3 -32.33,0 -63.66,-9.75 -90.24,-28.15l-3.43 -2.37 -2.57 -3.26c-26.31,-33.33 -66.09,-52.69 -108.63,-52.69 -76.4,0 -138.31,61.91 -138.31,138.32 0,43.05 19.83,83.22 53.83,109.5l3.51 2.72 2.49 3.67c17.85,26.31 27.28,57.17 27.28,88.96 0,87.61 -71.04,158.63 -158.63,158.63 -87.61,0 -158.63,-71.04 -158.63,-158.63 0,-33.56 10.51,-65.93 30.05,-92.92 -3.18,-36.37 -25.44,-68.44 -58.52,-84.13l-50.54 0 0 -93.83c-22.27,-4.28 -43.27,-13.7 -61.44,-27.69 -31.76,1.46 -61.56,16 -82.3,40.24l-48.93 57.2 0 -425.89 48.85 56.63c20.72,24.03 50.37,38.41 81.94,39.88 18.26,-14.17 39.43,-23.7 61.87,-28l0 -93.83 51.04 0c32.9,-15.75 55.01,-47.72 58.18,-83.96 -14.8,-20.44 -24.42,-43.96 -28.21,-68.74l-293.89 0 0 -93.83c-22.27,-4.28 -43.27,-13.69 -61.44,-27.68 -31.76,1.46 -61.56,16 -82.3,40.24l-48.93 57.22 0 -425.89 48.85 56.63c20.72,24.03 50.37,38.41 81.94,39.87 18.26,-14.17 39.43,-23.69 61.87,-28l0 -93.83 51.04 0c32.9,-15.75 55.01,-47.72 58.18,-83.98 -19.54,-26.99 -30.05,-59.36 -30.05,-92.92 0,-87.61 71.04,-158.63 158.63,-158.63 87.61,0 158.63,71.04 158.63,158.63 0,22.74 -4.82,45.01 -14.1,65.47l0.02 -0.02z"/>
   <g>
    <path fill="#1E212A" d="M586.92 1104.04l29.16 0c47.25,-19.73 80.45,-66.38 80.45,-120.78 -19,-22.72 -30.45,-51.98 -30.45,-83.91 0,-72.26 58.58,-130.84 130.84,-130.84 72.26,0 130.84,58.58 130.84,130.84 0,27.19 -8.29,52.43 -22.49,73.35 -39.26,30.35 -64.57,77.89 -64.61,131.34l0 0.16 0 0c0,91.69 74.28,166.02 165.94,166.11l0.17 0c54.36,0 102.61,-26.11 132.92,-66.47 20.61,-13.55 45.27,-21.43 71.77,-21.43 72.26,0 130.84,58.58 130.84,130.84 0,72.26 -58.58,130.84 -130.84,130.84 -27.64,0 -53.28,-8.58 -74.41,-23.2 -30.43,-38.53 -77.54,-63.26 -130.45,-63.26 -91.73,0 -166.11,74.37 -166.11,166.11 0,53.52 25.31,101.11 64.61,131.49 14.19,20.93 22.49,46.17 22.49,73.35 0,72.26 -58.58,130.84 -130.83,130.84 -72.26,0 -130.84,-58.58 -130.84,-130.84 0,-31.93 11.44,-61.19 30.45,-83.91 0,-54.55 -33.39,-101.3 -80.84,-120.94l-28.61 0 0 -79.01c72.26,0 130.83,-58.58 130.83,-130.84 0,-72.26 -58.58,-130.84 -130.83,-130.84l0 -79.01 -0.01 -0.02zm-192.67 72.33l0 275.82c26.69,-31.22 66.15,-50.11 108.75,-50.11l4.43 0 3.39 2.84c21.42,17.92 48.17,27.61 76.09,27.61 65.53,0 118.65,-53.12 118.65,-118.65 0,-65.54 -53.12,-118.66 -118.65,-118.66 -28.08,0 -54.97,9.81 -76.44,27.91l-3.4 2.87 -4.44 0c-42.39,0 -81.66,-18.69 -108.37,-49.64l0 0.01z"/>
    <path fill="#1E212A" d="M1625.99 1318.89l-29.15 0c-47.25,19.74 -80.45,66.39 -80.45,120.78 19.01,22.72 30.45,51.98 30.45,83.91 0,72.26 -58.58,130.84 -130.84,130.84 -72.26,0 -130.84,-58.58 -130.84,-130.84 0,-27.19 8.29,-52.43 22.48,-73.35 39.26,-30.35 64.57,-77.89 64.61,-131.33l0 -0.17 0 0c0,-91.69 -74.28,-166.02 -165.94,-166.11l-0.16 0c-54.37,0 -102.62,26.11 -132.93,66.47 -20.61,13.55 -45.27,21.43 -71.77,21.43 -72.26,0 -130.84,-58.58 -130.84,-130.84 0,-72.26 58.58,-130.84 130.84,-130.84 27.64,0 53.29,8.57 74.41,23.2 30.43,38.52 77.54,63.26 130.44,63.26 91.75,0 166.11,-74.36 166.11,-166.11 0,-53.51 -25.32,-101.11 -64.61,-131.49 -14.19,-20.93 -22.48,-46.17 -22.48,-73.35 0,-72.26 58.58,-130.84 130.84,-130.84 72.26,0 130.84,58.58 130.84,130.84 0,31.93 -11.43,61.19 -30.44,83.91 0,54.55 33.39,101.3 80.84,120.93l28.6 0 0 79.01c-72.26,0 -130.84,58.58 -130.84,130.83 0,72.26 58.58,130.84 130.84,130.84l0 79.01 0 0.03zm192.67 -72.33l0 -275.81c-26.7,31.21 -66.15,50.1 -108.75,50.1l-4.43 0 -3.39 -2.84c-21.42,-17.92 -48.17,-27.6 -76.09,-27.6 -65.54,0 -118.65,53.12 -118.65,118.65 0,65.54 53.12,118.66 118.65,118.66 28.08,0 54.97,-9.81 76.44,-27.91l3.4 -2.87 4.46 0c42.39,0 81.66,18.69 108.37,49.64l-0.02 -0.01z"/>
    <path fill="#1E212A" d="M995.58 272.75l0 29.16c-19.74,47.25 -66.39,80.45 -120.78,80.45 -22.72,-19 -51.98,-30.45 -83.91,-30.45 -72.26,0 -130.84,58.58 -130.84,130.83 0,72.26 58.58,130.84 130.84,130.84 27.19,0 52.43,-8.29 73.35,-22.49 30.35,-39.26 77.89,-64.57 131.33,-64.61l0.17 0 0 0c91.69,0 166.02,74.28 166.11,165.94l0 0.17c0,54.37 -26.11,102.62 -66.47,132.92 -13.55,20.61 -21.43,45.27 -21.43,71.77 0,72.26 58.58,130.84 130.84,130.84 72.26,0 130.84,-58.58 130.84,-130.84 0,-27.64 -8.57,-53.28 -23.2,-74.41 -38.52,-30.41 -63.26,-77.54 -63.26,-130.45 0,-91.74 74.36,-166.11 166.11,-166.11 53.53,0 101.13,25.31 131.49,64.61 20.93,14.19 46.17,22.49 73.35,22.49 72.26,0 130.84,-58.58 130.84,-130.84 0,-72.26 -58.58,-130.84 -130.84,-130.84 -31.93,0 -61.19,11.44 -83.91,30.45 -54.55,0 -101.3,-33.39 -120.95,-80.84l0 -28.61 -79.01 0c0,72.26 -58.58,130.84 -130.83,130.84 -72.26,0 -130.84,-58.58 -130.84,-130.84l-79.01 0 -0.01 0.01z"/>
    <path fill="#1E212A" d="M374.04 476.04l29.15 0c47.25,-19.74 80.45,-66.37 80.45,-120.78 -19.01,-22.72 -30.45,-51.98 -30.45,-83.91 0,-72.26 58.58,-130.84 130.84,-130.84 72.26,0 130.84,58.58 130.84,130.84 0,27.19 -8.29,52.43 -22.48,73.35 -39.26,30.35 -64.57,77.87 -64.61,131.33l0 0.17 0 0c0,91.69 74.28,166.02 165.94,166.11l0.16 0c54.37,0 102.62,-26.11 132.93,-66.47 20.61,-13.54 45.27,-21.42 71.77,-21.42 72.26,0 130.84,58.58 130.84,130.84 0,72.26 -58.58,130.84 -130.84,130.84 -27.64,0 -53.29,-8.58 -74.41,-23.2 -30.43,-38.54 -77.54,-63.27 -130.44,-63.27 -91.75,0 -166.11,74.36 -166.11,166.11l-253.57 0 0 -79.01c72.26,0 130.84,-58.58 130.84,-130.84 0,-72.26 -58.58,-130.84 -130.84,-130.84l0 -79.01 -0.01 0zm-192.67 72.33l0 275.81c26.7,-31.21 66.15,-50.1 108.75,-50.1l4.43 0 3.39 2.84c21.42,17.92 48.17,27.59 76.09,27.59 65.54,0 118.65,-53.12 118.65,-118.65 0,-65.54 -53.12,-118.65 -118.65,-118.65 -28.08,0 -54.97,9.81 -76.44,27.91l-3.4 2.87 -4.46 0c-42.39,0 -81.66,-18.69 -108.37,-49.64l0.02 0.01z"/>
   </g>
  </g>
 </g>
</svg>
